<mxfile host="app.diagrams.net" modified="2024-03-03T16:11:46.139Z" agent="Mozilla/5.0 (Windows NT 10.0; Win64; x64) AppleWebKit/537.36 (KHTML, like Gecko) Chrome/121.0.0.0 Safari/537.36 OPR/107.0.0.0" etag="0w5kP0_hkzK_XLPzmQ6C" version="24.0.1" type="github" pages="3">
  <diagram name="Page-1" id="MqLSghX_NGFWABr9mF74">
    <mxGraphModel dx="1008" dy="621" grid="0" gridSize="10" guides="1" tooltips="1" connect="1" arrows="1" fold="1" page="1" pageScale="1" pageWidth="850" pageHeight="1100" math="0" shadow="0">
      <root>
        <mxCell id="0" />
        <mxCell id="1" parent="0" />
        <mxCell id="jcVJwFjLsvMtYyJcOiBf-1" value="" style="sketch=0;outlineConnect=0;fontColor=#232F3E;gradientColor=none;fillColor=#232F3D;strokeColor=none;dashed=0;verticalLabelPosition=bottom;verticalAlign=top;align=center;html=1;fontSize=12;fontStyle=0;aspect=fixed;pointerEvents=1;shape=mxgraph.aws4.document;" parent="1" vertex="1">
          <mxGeometry x="168" y="204" width="76" height="104" as="geometry" />
        </mxCell>
        <mxCell id="jcVJwFjLsvMtYyJcOiBf-3" value="&lt;font style=&quot;font-size: 14px;&quot;&gt;Plain text&lt;/font&gt;" style="whiteSpace=wrap;html=1;fillColor=none;strokeColor=none;" parent="1" vertex="1">
          <mxGeometry x="170.7" y="320.5" width="70.6" height="29" as="geometry" />
        </mxCell>
        <mxCell id="jcVJwFjLsvMtYyJcOiBf-4" value="&lt;font style=&quot;font-size: 25px;&quot;&gt;Data Encryption&lt;/font&gt;" style="whiteSpace=wrap;html=1;fillColor=default;strokeColor=none;" parent="1" vertex="1">
          <mxGeometry x="244" y="70" width="362" height="118" as="geometry" />
        </mxCell>
        <mxCell id="jcVJwFjLsvMtYyJcOiBf-6" value="" style="points=[[0,0.5,0],[0.24,0,0],[0.5,0.28,0],[0.995,0.475,0],[0.5,0.72,0],[0.24,1,0]];verticalLabelPosition=bottom;sketch=0;html=1;verticalAlign=top;aspect=fixed;align=center;pointerEvents=1;shape=mxgraph.cisco19.key;fillColor=#005073;strokeColor=none;" parent="1" vertex="1">
          <mxGeometry x="259" y="230.8" width="112" height="50.4" as="geometry" />
        </mxCell>
        <mxCell id="jcVJwFjLsvMtYyJcOiBf-7" value="Cipher text&lt;div&gt;&lt;br&gt;&lt;/div&gt;" style="sketch=0;outlineConnect=0;fontColor=#232F3E;gradientColor=none;strokeColor=none;fillColor=none;dashed=0;verticalLabelPosition=bottom;verticalAlign=top;align=center;html=1;fontSize=14;fontStyle=0;aspect=fixed;shape=mxgraph.aws4.resourceIcon;resIcon=mxgraph.aws4.encrypted_data;" parent="1" vertex="1">
          <mxGeometry x="361" y="191.5" width="129" height="129" as="geometry" />
        </mxCell>
        <mxCell id="jcVJwFjLsvMtYyJcOiBf-11" value="" style="sketch=0;outlineConnect=0;fontColor=#232F3E;gradientColor=none;fillColor=#232F3D;strokeColor=none;dashed=0;verticalLabelPosition=bottom;verticalAlign=top;align=center;html=1;fontSize=12;fontStyle=0;aspect=fixed;pointerEvents=1;shape=mxgraph.aws4.document;" parent="1" vertex="1">
          <mxGeometry x="606" y="204" width="76" height="104" as="geometry" />
        </mxCell>
        <mxCell id="jcVJwFjLsvMtYyJcOiBf-12" value="" style="points=[[0,0.5,0],[0.24,0,0],[0.5,0.28,0],[0.995,0.475,0],[0.5,0.72,0],[0.24,1,0]];verticalLabelPosition=bottom;sketch=0;html=1;verticalAlign=top;aspect=fixed;align=center;pointerEvents=1;shape=mxgraph.cisco19.key;fillColor=#005073;strokeColor=none;" parent="1" vertex="1">
          <mxGeometry x="483" y="229" width="112" height="50.4" as="geometry" />
        </mxCell>
        <mxCell id="jcVJwFjLsvMtYyJcOiBf-13" value="&lt;font style=&quot;font-size: 14px;&quot;&gt;Plain text&lt;/font&gt;" style="whiteSpace=wrap;html=1;fillColor=none;strokeColor=none;" parent="1" vertex="1">
          <mxGeometry x="608.7" y="320.5" width="70.6" height="29" as="geometry" />
        </mxCell>
        <mxCell id="jcVJwFjLsvMtYyJcOiBf-14" value="&lt;font style=&quot;font-size: 16px;&quot;&gt;Encryption&lt;/font&gt;" style="text;html=1;align=center;verticalAlign=middle;resizable=0;points=[];autosize=1;strokeColor=none;fillColor=none;fontStyle=1" parent="1" vertex="1">
          <mxGeometry x="268" y="200.8" width="94" height="31" as="geometry" />
        </mxCell>
        <mxCell id="jcVJwFjLsvMtYyJcOiBf-15" value="&lt;font style=&quot;font-size: 16px;&quot;&gt;Decryption&lt;/font&gt;" style="text;html=1;align=center;verticalAlign=middle;resizable=0;points=[];autosize=1;strokeColor=none;fillColor=none;fontStyle=1" parent="1" vertex="1">
          <mxGeometry x="493" y="199" width="94" height="31" as="geometry" />
        </mxCell>
      </root>
    </mxGraphModel>
  </diagram>
  <diagram id="LXpEWkzObIfHgygz5iXf" name="Page-2">
    <mxGraphModel dx="1120" dy="690" grid="0" gridSize="10" guides="1" tooltips="1" connect="1" arrows="1" fold="1" page="1" pageScale="1" pageWidth="850" pageHeight="1100" math="0" shadow="0">
      <root>
        <mxCell id="0" />
        <mxCell id="1" parent="0" />
        <mxCell id="3jqIYZoKeuf_9ZgoLryT-1" value="" style="sketch=0;outlineConnect=0;fontColor=#232F3E;gradientColor=none;fillColor=#232F3D;strokeColor=none;dashed=0;verticalLabelPosition=bottom;verticalAlign=top;align=center;html=1;fontSize=12;fontStyle=0;aspect=fixed;pointerEvents=1;shape=mxgraph.aws4.document;" parent="1" vertex="1">
          <mxGeometry x="168.11" y="222.5" width="76" height="104" as="geometry" />
        </mxCell>
        <mxCell id="3jqIYZoKeuf_9ZgoLryT-2" value="&lt;font style=&quot;font-size: 14px;&quot;&gt;Plain text&lt;/font&gt;" style="whiteSpace=wrap;html=1;fillColor=none;strokeColor=none;" parent="1" vertex="1">
          <mxGeometry x="170.81" y="339" width="70.6" height="29" as="geometry" />
        </mxCell>
        <mxCell id="3jqIYZoKeuf_9ZgoLryT-3" value="&lt;font style=&quot;font-size: 25px;&quot;&gt;Symmetric encryption&lt;/font&gt;" style="whiteSpace=wrap;html=1;fillColor=default;strokeColor=none;" parent="1" vertex="1">
          <mxGeometry x="244.11" width="362" height="118" as="geometry" />
        </mxCell>
        <mxCell id="3jqIYZoKeuf_9ZgoLryT-4" value="" style="points=[[0,0.5,0],[0.24,0,0],[0.5,0.28,0],[0.995,0.475,0],[0.5,0.72,0],[0.24,1,0]];verticalLabelPosition=bottom;sketch=0;html=1;verticalAlign=top;aspect=fixed;align=center;pointerEvents=1;shape=mxgraph.cisco19.key;fillColor=#005073;strokeColor=none;" parent="1" vertex="1">
          <mxGeometry x="259.11" y="249.3" width="112" height="50.4" as="geometry" />
        </mxCell>
        <mxCell id="3jqIYZoKeuf_9ZgoLryT-5" value="Cipher text&lt;div&gt;&lt;br&gt;&lt;/div&gt;" style="sketch=0;outlineConnect=0;fontColor=#232F3E;gradientColor=none;strokeColor=none;fillColor=none;dashed=0;verticalLabelPosition=bottom;verticalAlign=top;align=center;html=1;fontSize=14;fontStyle=0;aspect=fixed;shape=mxgraph.aws4.resourceIcon;resIcon=mxgraph.aws4.encrypted_data;" parent="1" vertex="1">
          <mxGeometry x="361.11" y="210" width="129" height="129" as="geometry" />
        </mxCell>
        <mxCell id="3jqIYZoKeuf_9ZgoLryT-6" value="" style="sketch=0;outlineConnect=0;fontColor=#232F3E;gradientColor=none;fillColor=#232F3D;strokeColor=none;dashed=0;verticalLabelPosition=bottom;verticalAlign=top;align=center;html=1;fontSize=12;fontStyle=0;aspect=fixed;pointerEvents=1;shape=mxgraph.aws4.document;" parent="1" vertex="1">
          <mxGeometry x="606.11" y="222.5" width="76" height="104" as="geometry" />
        </mxCell>
        <mxCell id="3jqIYZoKeuf_9ZgoLryT-7" value="" style="points=[[0,0.5,0],[0.24,0,0],[0.5,0.28,0],[0.995,0.475,0],[0.5,0.72,0],[0.24,1,0]];verticalLabelPosition=bottom;sketch=0;html=1;verticalAlign=top;aspect=fixed;align=center;pointerEvents=1;shape=mxgraph.cisco19.key;fillColor=#005073;strokeColor=none;" parent="1" vertex="1">
          <mxGeometry x="483.11" y="247.5" width="112" height="50.4" as="geometry" />
        </mxCell>
        <mxCell id="3jqIYZoKeuf_9ZgoLryT-8" value="&lt;font style=&quot;font-size: 14px;&quot;&gt;Plain text&lt;/font&gt;" style="whiteSpace=wrap;html=1;fillColor=none;strokeColor=none;" parent="1" vertex="1">
          <mxGeometry x="608.8100000000001" y="339" width="70.6" height="29" as="geometry" />
        </mxCell>
        <mxCell id="3jqIYZoKeuf_9ZgoLryT-9" value="&lt;font style=&quot;font-size: 16px;&quot;&gt;Encryption&lt;/font&gt;" style="text;html=1;align=center;verticalAlign=middle;resizable=0;points=[];autosize=1;strokeColor=none;fillColor=none;fontStyle=1" parent="1" vertex="1">
          <mxGeometry x="268.11" y="219.3" width="94" height="31" as="geometry" />
        </mxCell>
        <mxCell id="3jqIYZoKeuf_9ZgoLryT-10" value="&lt;font style=&quot;font-size: 16px;&quot;&gt;Decryption&lt;/font&gt;" style="text;html=1;align=center;verticalAlign=middle;resizable=0;points=[];autosize=1;strokeColor=none;fillColor=none;fontStyle=1" parent="1" vertex="1">
          <mxGeometry x="493.11" y="217.5" width="94" height="31" as="geometry" />
        </mxCell>
        <mxCell id="3jqIYZoKeuf_9ZgoLryT-15" style="edgeStyle=orthogonalEdgeStyle;rounded=0;orthogonalLoop=1;jettySize=auto;html=1;exitX=0.5;exitY=0.28;exitDx=0;exitDy=0;exitPerimeter=0;entryX=0.498;entryY=0.055;entryDx=0;entryDy=0;entryPerimeter=0;" parent="1" source="3jqIYZoKeuf_9ZgoLryT-11" target="3jqIYZoKeuf_9ZgoLryT-10" edge="1">
          <mxGeometry relative="1" as="geometry">
            <mxPoint x="550.11" y="121" as="targetPoint" />
          </mxGeometry>
        </mxCell>
        <mxCell id="3jqIYZoKeuf_9ZgoLryT-16" style="edgeStyle=orthogonalEdgeStyle;rounded=0;orthogonalLoop=1;jettySize=auto;html=1;exitX=0.5;exitY=0.72;exitDx=0;exitDy=0;exitPerimeter=0;entryX=0.5;entryY=0.048;entryDx=0;entryDy=0;entryPerimeter=0;" parent="1" source="3jqIYZoKeuf_9ZgoLryT-11" target="3jqIYZoKeuf_9ZgoLryT-9" edge="1">
          <mxGeometry relative="1" as="geometry">
            <mxPoint x="300.11" y="121" as="targetPoint" />
          </mxGeometry>
        </mxCell>
        <mxCell id="3jqIYZoKeuf_9ZgoLryT-11" value="" style="points=[[0,0.5,0],[0.24,0,0],[0.5,0.28,0],[0.995,0.475,0],[0.5,0.72,0],[0.24,1,0]];verticalLabelPosition=bottom;sketch=0;html=1;verticalAlign=top;aspect=fixed;align=center;pointerEvents=1;shape=mxgraph.cisco19.key;fillColor=#005073;strokeColor=none;rotation=90;" parent="1" vertex="1">
          <mxGeometry x="391.11" y="106" width="67.78" height="30.5" as="geometry" />
        </mxCell>
        <mxCell id="3jqIYZoKeuf_9ZgoLryT-19" value="&lt;font style=&quot;font-size: 14px;&quot;&gt;Secret key&lt;/font&gt;" style="text;html=1;align=center;verticalAlign=middle;resizable=0;points=[];autosize=1;strokeColor=none;fillColor=none;" parent="1" vertex="1">
          <mxGeometry x="384.11" y="159" width="84" height="29" as="geometry" />
        </mxCell>
        <mxCell id="3jqIYZoKeuf_9ZgoLryT-21" value="" style="sketch=0;outlineConnect=0;fontColor=#232F3E;gradientColor=none;fillColor=#232F3D;strokeColor=none;dashed=0;verticalLabelPosition=bottom;verticalAlign=top;align=center;html=1;fontSize=12;fontStyle=0;aspect=fixed;pointerEvents=1;shape=mxgraph.aws4.document;" parent="1" vertex="1">
          <mxGeometry x="168" y="600.5" width="76" height="104" as="geometry" />
        </mxCell>
        <mxCell id="3jqIYZoKeuf_9ZgoLryT-22" value="&lt;font style=&quot;font-size: 14px;&quot;&gt;Plain text&lt;/font&gt;" style="whiteSpace=wrap;html=1;fillColor=none;strokeColor=none;" parent="1" vertex="1">
          <mxGeometry x="170.7" y="717" width="70.6" height="29" as="geometry" />
        </mxCell>
        <mxCell id="3jqIYZoKeuf_9ZgoLryT-23" value="&lt;font style=&quot;font-size: 25px;&quot;&gt;Asymmetric encryption&lt;/font&gt;" style="whiteSpace=wrap;html=1;fillColor=default;strokeColor=none;" parent="1" vertex="1">
          <mxGeometry x="243.5" y="368" width="362" height="118" as="geometry" />
        </mxCell>
        <mxCell id="3jqIYZoKeuf_9ZgoLryT-24" value="" style="points=[[0,0.5,0],[0.24,0,0],[0.5,0.28,0],[0.995,0.475,0],[0.5,0.72,0],[0.24,1,0]];verticalLabelPosition=bottom;sketch=0;html=1;verticalAlign=top;aspect=fixed;align=center;pointerEvents=1;shape=mxgraph.cisco19.key;fillColor=#005073;strokeColor=none;" parent="1" vertex="1">
          <mxGeometry x="259" y="627.3" width="112" height="50.4" as="geometry" />
        </mxCell>
        <mxCell id="3jqIYZoKeuf_9ZgoLryT-25" value="Cipher text&lt;div&gt;&lt;br&gt;&lt;/div&gt;" style="sketch=0;outlineConnect=0;fontColor=#232F3E;gradientColor=none;strokeColor=none;fillColor=none;dashed=0;verticalLabelPosition=bottom;verticalAlign=top;align=center;html=1;fontSize=14;fontStyle=0;aspect=fixed;shape=mxgraph.aws4.resourceIcon;resIcon=mxgraph.aws4.encrypted_data;" parent="1" vertex="1">
          <mxGeometry x="361" y="588" width="129" height="129" as="geometry" />
        </mxCell>
        <mxCell id="3jqIYZoKeuf_9ZgoLryT-26" value="" style="sketch=0;outlineConnect=0;fontColor=#232F3E;gradientColor=none;fillColor=#232F3D;strokeColor=none;dashed=0;verticalLabelPosition=bottom;verticalAlign=top;align=center;html=1;fontSize=12;fontStyle=0;aspect=fixed;pointerEvents=1;shape=mxgraph.aws4.document;" parent="1" vertex="1">
          <mxGeometry x="606" y="600.5" width="76" height="104" as="geometry" />
        </mxCell>
        <mxCell id="3jqIYZoKeuf_9ZgoLryT-27" value="" style="points=[[0,0.5,0],[0.24,0,0],[0.5,0.28,0],[0.995,0.475,0],[0.5,0.72,0],[0.24,1,0]];verticalLabelPosition=bottom;sketch=0;html=1;verticalAlign=top;aspect=fixed;align=center;pointerEvents=1;shape=mxgraph.cisco19.key;fillColor=#005073;strokeColor=none;" parent="1" vertex="1">
          <mxGeometry x="483" y="625.5" width="112" height="50.4" as="geometry" />
        </mxCell>
        <mxCell id="3jqIYZoKeuf_9ZgoLryT-28" value="&lt;font style=&quot;font-size: 14px;&quot;&gt;Plain text&lt;/font&gt;" style="whiteSpace=wrap;html=1;fillColor=none;strokeColor=none;" parent="1" vertex="1">
          <mxGeometry x="608.7" y="717" width="70.6" height="29" as="geometry" />
        </mxCell>
        <mxCell id="3jqIYZoKeuf_9ZgoLryT-29" value="&lt;font style=&quot;font-size: 16px;&quot;&gt;Encryption&lt;/font&gt;" style="text;html=1;align=center;verticalAlign=middle;resizable=0;points=[];autosize=1;strokeColor=none;fillColor=none;fontStyle=1" parent="1" vertex="1">
          <mxGeometry x="268" y="597.3" width="94" height="31" as="geometry" />
        </mxCell>
        <mxCell id="3jqIYZoKeuf_9ZgoLryT-30" value="&lt;font style=&quot;font-size: 16px;&quot;&gt;Decryption&lt;/font&gt;" style="text;html=1;align=center;verticalAlign=middle;resizable=0;points=[];autosize=1;strokeColor=none;fillColor=none;fontStyle=1" parent="1" vertex="1">
          <mxGeometry x="493" y="595.5" width="94" height="31" as="geometry" />
        </mxCell>
        <mxCell id="3jqIYZoKeuf_9ZgoLryT-32" style="edgeStyle=orthogonalEdgeStyle;rounded=0;orthogonalLoop=1;jettySize=auto;html=1;exitX=0.5;exitY=0.72;exitDx=0;exitDy=0;exitPerimeter=0;entryX=0.5;entryY=0.048;entryDx=0;entryDy=0;entryPerimeter=0;" parent="1" source="3jqIYZoKeuf_9ZgoLryT-33" target="3jqIYZoKeuf_9ZgoLryT-29" edge="1">
          <mxGeometry relative="1" as="geometry">
            <mxPoint x="300" y="499" as="targetPoint" />
          </mxGeometry>
        </mxCell>
        <mxCell id="3jqIYZoKeuf_9ZgoLryT-33" value="" style="points=[[0,0.5,0],[0.24,0,0],[0.5,0.28,0],[0.995,0.475,0],[0.5,0.72,0],[0.24,1,0]];verticalLabelPosition=bottom;sketch=0;html=1;verticalAlign=top;aspect=fixed;align=center;pointerEvents=1;shape=mxgraph.cisco19.key;fillColor=#004C99;strokeColor=none;rotation=0;" parent="1" vertex="1">
          <mxGeometry x="281.11" y="476" width="67.78" height="30.5" as="geometry" />
        </mxCell>
        <mxCell id="3jqIYZoKeuf_9ZgoLryT-34" value="&lt;font style=&quot;font-size: 14px;&quot;&gt;Secret key&lt;/font&gt;" style="text;html=1;align=center;verticalAlign=middle;resizable=0;points=[];autosize=1;strokeColor=none;fillColor=none;fontSize=14;" parent="1" vertex="1">
          <mxGeometry x="498" y="447" width="84" height="29" as="geometry" />
        </mxCell>
        <mxCell id="3jqIYZoKeuf_9ZgoLryT-37" value="" style="points=[[0,0.5,0],[0.24,0,0],[0.5,0.28,0],[0.995,0.475,0],[0.5,0.72,0],[0.24,1,0]];verticalLabelPosition=bottom;sketch=0;html=1;verticalAlign=top;aspect=fixed;align=center;pointerEvents=1;shape=mxgraph.cisco19.key;fillColor=#006633;strokeColor=none;rotation=0;" parent="1" vertex="1">
          <mxGeometry x="506.11" y="476" width="67.78" height="30.5" as="geometry" />
        </mxCell>
        <mxCell id="3jqIYZoKeuf_9ZgoLryT-39" style="edgeStyle=orthogonalEdgeStyle;rounded=0;orthogonalLoop=1;jettySize=auto;html=1;exitX=0.5;exitY=0.72;exitDx=0;exitDy=0;exitPerimeter=0;entryX=0.505;entryY=0.1;entryDx=0;entryDy=0;entryPerimeter=0;" parent="1" source="3jqIYZoKeuf_9ZgoLryT-37" target="3jqIYZoKeuf_9ZgoLryT-30" edge="1">
          <mxGeometry relative="1" as="geometry" />
        </mxCell>
        <mxCell id="3jqIYZoKeuf_9ZgoLryT-40" value="&lt;font style=&quot;font-size: 14px;&quot;&gt;Public key&lt;/font&gt;" style="text;html=1;align=center;verticalAlign=middle;resizable=0;points=[];autosize=1;strokeColor=none;fillColor=none;fontSize=14;" parent="1" vertex="1">
          <mxGeometry x="274" y="447" width="82" height="29" as="geometry" />
        </mxCell>
      </root>
    </mxGraphModel>
  </diagram>
  <diagram id="fUA-Y58fo1yCa0q86D6j" name="Page-3">
    <mxGraphModel dx="1008" dy="621" grid="0" gridSize="10" guides="1" tooltips="1" connect="1" arrows="1" fold="1" page="1" pageScale="1" pageWidth="850" pageHeight="1100" math="0" shadow="0">
      <root>
        <mxCell id="0" />
        <mxCell id="1" parent="0" />
        <mxCell id="PwJvdcio4J_TDnvO0Oxu-1" value="" style="shape=table;startSize=0;container=1;collapsible=0;childLayout=tableLayout;fontSize=16;" vertex="1" parent="1">
          <mxGeometry x="191" y="152" width="236" height="33" as="geometry" />
        </mxCell>
        <mxCell id="PwJvdcio4J_TDnvO0Oxu-2" value="" style="shape=tableRow;horizontal=0;startSize=0;swimlaneHead=0;swimlaneBody=0;strokeColor=inherit;top=0;left=0;bottom=0;right=0;collapsible=0;dropTarget=0;fillColor=none;points=[[0,0.5],[1,0.5]];portConstraint=eastwest;fontSize=16;" vertex="1" parent="PwJvdcio4J_TDnvO0Oxu-1">
          <mxGeometry width="236" height="33" as="geometry" />
        </mxCell>
        <mxCell id="PwJvdcio4J_TDnvO0Oxu-17" value="A" style="shape=partialRectangle;html=1;whiteSpace=wrap;connectable=0;strokeColor=inherit;overflow=hidden;fillColor=none;top=0;left=0;bottom=0;right=0;pointerEvents=1;fontSize=16;" vertex="1" parent="PwJvdcio4J_TDnvO0Oxu-2">
          <mxGeometry width="59" height="33" as="geometry">
            <mxRectangle width="59" height="33" as="alternateBounds" />
          </mxGeometry>
        </mxCell>
        <mxCell id="PwJvdcio4J_TDnvO0Oxu-14" value="B" style="shape=partialRectangle;html=1;whiteSpace=wrap;connectable=0;strokeColor=inherit;overflow=hidden;fillColor=none;top=0;left=0;bottom=0;right=0;pointerEvents=1;fontSize=16;" vertex="1" parent="PwJvdcio4J_TDnvO0Oxu-2">
          <mxGeometry x="59" width="59" height="33" as="geometry">
            <mxRectangle width="59" height="33" as="alternateBounds" />
          </mxGeometry>
        </mxCell>
        <mxCell id="PwJvdcio4J_TDnvO0Oxu-3" value="C" style="shape=partialRectangle;html=1;whiteSpace=wrap;connectable=0;strokeColor=inherit;overflow=hidden;fillColor=none;top=0;left=0;bottom=0;right=0;pointerEvents=1;fontSize=16;" vertex="1" parent="PwJvdcio4J_TDnvO0Oxu-2">
          <mxGeometry x="118" width="59" height="33" as="geometry">
            <mxRectangle width="59" height="33" as="alternateBounds" />
          </mxGeometry>
        </mxCell>
        <mxCell id="PwJvdcio4J_TDnvO0Oxu-4" value="D" style="shape=partialRectangle;html=1;whiteSpace=wrap;connectable=0;strokeColor=inherit;overflow=hidden;fillColor=none;top=0;left=0;bottom=0;right=0;pointerEvents=1;fontSize=16;" vertex="1" parent="PwJvdcio4J_TDnvO0Oxu-2">
          <mxGeometry x="177" width="59" height="33" as="geometry">
            <mxRectangle width="59" height="33" as="alternateBounds" />
          </mxGeometry>
        </mxCell>
        <mxCell id="PwJvdcio4J_TDnvO0Oxu-20" value="" style="shape=table;startSize=0;container=1;collapsible=0;childLayout=tableLayout;fontSize=16;" vertex="1" parent="1">
          <mxGeometry x="191" y="220" width="236" height="33" as="geometry" />
        </mxCell>
        <mxCell id="PwJvdcio4J_TDnvO0Oxu-21" value="" style="shape=tableRow;horizontal=0;startSize=0;swimlaneHead=0;swimlaneBody=0;strokeColor=inherit;top=0;left=0;bottom=0;right=0;collapsible=0;dropTarget=0;fillColor=none;points=[[0,0.5],[1,0.5]];portConstraint=eastwest;fontSize=16;" vertex="1" parent="PwJvdcio4J_TDnvO0Oxu-20">
          <mxGeometry width="236" height="33" as="geometry" />
        </mxCell>
        <mxCell id="PwJvdcio4J_TDnvO0Oxu-22" value="0" style="shape=partialRectangle;html=1;whiteSpace=wrap;connectable=0;strokeColor=inherit;overflow=hidden;fillColor=none;top=0;left=0;bottom=0;right=0;pointerEvents=1;fontSize=16;" vertex="1" parent="PwJvdcio4J_TDnvO0Oxu-21">
          <mxGeometry width="59" height="33" as="geometry">
            <mxRectangle width="59" height="33" as="alternateBounds" />
          </mxGeometry>
        </mxCell>
        <mxCell id="PwJvdcio4J_TDnvO0Oxu-23" value="1" style="shape=partialRectangle;html=1;whiteSpace=wrap;connectable=0;strokeColor=inherit;overflow=hidden;fillColor=none;top=0;left=0;bottom=0;right=0;pointerEvents=1;fontSize=16;" vertex="1" parent="PwJvdcio4J_TDnvO0Oxu-21">
          <mxGeometry x="59" width="59" height="33" as="geometry">
            <mxRectangle width="59" height="33" as="alternateBounds" />
          </mxGeometry>
        </mxCell>
        <mxCell id="PwJvdcio4J_TDnvO0Oxu-24" value="2" style="shape=partialRectangle;html=1;whiteSpace=wrap;connectable=0;strokeColor=inherit;overflow=hidden;fillColor=none;top=0;left=0;bottom=0;right=0;pointerEvents=1;fontSize=16;" vertex="1" parent="PwJvdcio4J_TDnvO0Oxu-21">
          <mxGeometry x="118" width="59" height="33" as="geometry">
            <mxRectangle width="59" height="33" as="alternateBounds" />
          </mxGeometry>
        </mxCell>
        <mxCell id="PwJvdcio4J_TDnvO0Oxu-25" value="3" style="shape=partialRectangle;html=1;whiteSpace=wrap;connectable=0;strokeColor=inherit;overflow=hidden;fillColor=none;top=0;left=0;bottom=0;right=0;pointerEvents=1;fontSize=16;" vertex="1" parent="PwJvdcio4J_TDnvO0Oxu-21">
          <mxGeometry x="177" width="59" height="33" as="geometry">
            <mxRectangle width="59" height="33" as="alternateBounds" />
          </mxGeometry>
        </mxCell>
        <mxCell id="PwJvdcio4J_TDnvO0Oxu-26" value="" style="endArrow=none;dashed=1;html=1;dashPattern=1 3;strokeWidth=2;rounded=0;" edge="1" parent="1">
          <mxGeometry width="50" height="50" relative="1" as="geometry">
            <mxPoint x="446" y="168.3" as="sourcePoint" />
            <mxPoint x="519" y="168.3" as="targetPoint" />
          </mxGeometry>
        </mxCell>
        <mxCell id="PwJvdcio4J_TDnvO0Oxu-27" value="" style="endArrow=none;dashed=1;html=1;dashPattern=1 3;strokeWidth=2;rounded=0;" edge="1" parent="1">
          <mxGeometry width="50" height="50" relative="1" as="geometry">
            <mxPoint x="446" y="236.21" as="sourcePoint" />
            <mxPoint x="519" y="236.21" as="targetPoint" />
          </mxGeometry>
        </mxCell>
        <mxCell id="PwJvdcio4J_TDnvO0Oxu-28" value="" style="shape=table;startSize=0;container=1;collapsible=0;childLayout=tableLayout;fontSize=16;" vertex="1" parent="1">
          <mxGeometry x="540" y="152" width="118" height="33" as="geometry" />
        </mxCell>
        <mxCell id="PwJvdcio4J_TDnvO0Oxu-29" value="" style="shape=tableRow;horizontal=0;startSize=0;swimlaneHead=0;swimlaneBody=0;strokeColor=inherit;top=0;left=0;bottom=0;right=0;collapsible=0;dropTarget=0;fillColor=none;points=[[0,0.5],[1,0.5]];portConstraint=eastwest;fontSize=16;" vertex="1" parent="PwJvdcio4J_TDnvO0Oxu-28">
          <mxGeometry width="118" height="33" as="geometry" />
        </mxCell>
        <mxCell id="PwJvdcio4J_TDnvO0Oxu-30" value="Z" style="shape=partialRectangle;html=1;whiteSpace=wrap;connectable=0;strokeColor=inherit;overflow=hidden;fillColor=none;top=0;left=0;bottom=0;right=0;pointerEvents=1;fontSize=16;" vertex="1" parent="PwJvdcio4J_TDnvO0Oxu-29">
          <mxGeometry width="59" height="33" as="geometry">
            <mxRectangle width="59" height="33" as="alternateBounds" />
          </mxGeometry>
        </mxCell>
        <mxCell id="PwJvdcio4J_TDnvO0Oxu-31" value="_" style="shape=partialRectangle;html=1;whiteSpace=wrap;connectable=0;strokeColor=inherit;overflow=hidden;fillColor=none;top=0;left=0;bottom=0;right=0;pointerEvents=1;fontSize=16;" vertex="1" parent="PwJvdcio4J_TDnvO0Oxu-29">
          <mxGeometry x="59" width="59" height="33" as="geometry">
            <mxRectangle width="59" height="33" as="alternateBounds" />
          </mxGeometry>
        </mxCell>
        <mxCell id="PwJvdcio4J_TDnvO0Oxu-35" value="" style="shape=table;startSize=0;container=1;collapsible=0;childLayout=tableLayout;fontSize=16;" vertex="1" parent="1">
          <mxGeometry x="540" y="220" width="118" height="33" as="geometry" />
        </mxCell>
        <mxCell id="PwJvdcio4J_TDnvO0Oxu-36" value="" style="shape=tableRow;horizontal=0;startSize=0;swimlaneHead=0;swimlaneBody=0;strokeColor=inherit;top=0;left=0;bottom=0;right=0;collapsible=0;dropTarget=0;fillColor=none;points=[[0,0.5],[1,0.5]];portConstraint=eastwest;fontSize=16;" vertex="1" parent="PwJvdcio4J_TDnvO0Oxu-35">
          <mxGeometry width="118" height="33" as="geometry" />
        </mxCell>
        <mxCell id="PwJvdcio4J_TDnvO0Oxu-37" value="25" style="shape=partialRectangle;html=1;whiteSpace=wrap;connectable=0;strokeColor=inherit;overflow=hidden;fillColor=none;top=0;left=0;bottom=0;right=0;pointerEvents=1;fontSize=16;" vertex="1" parent="PwJvdcio4J_TDnvO0Oxu-36">
          <mxGeometry width="59" height="33" as="geometry">
            <mxRectangle width="59" height="33" as="alternateBounds" />
          </mxGeometry>
        </mxCell>
        <mxCell id="PwJvdcio4J_TDnvO0Oxu-38" value="26" style="shape=partialRectangle;html=1;whiteSpace=wrap;connectable=0;strokeColor=inherit;overflow=hidden;fillColor=none;top=0;left=0;bottom=0;right=0;pointerEvents=1;fontSize=16;" vertex="1" parent="PwJvdcio4J_TDnvO0Oxu-36">
          <mxGeometry x="59" width="59" height="33" as="geometry">
            <mxRectangle width="59" height="33" as="alternateBounds" />
          </mxGeometry>
        </mxCell>
        <mxCell id="PwJvdcio4J_TDnvO0Oxu-47" value="" style="endArrow=block;startArrow=block;endFill=1;startFill=1;html=1;rounded=0;entryX=0.119;entryY=0.002;entryDx=0;entryDy=0;entryPerimeter=0;exitX=0.119;exitY=0.996;exitDx=0;exitDy=0;exitPerimeter=0;" edge="1" parent="1" source="PwJvdcio4J_TDnvO0Oxu-2" target="PwJvdcio4J_TDnvO0Oxu-20">
          <mxGeometry width="160" relative="1" as="geometry">
            <mxPoint x="218" y="186" as="sourcePoint" />
            <mxPoint x="377" y="117" as="targetPoint" />
          </mxGeometry>
        </mxCell>
        <mxCell id="PwJvdcio4J_TDnvO0Oxu-48" value="" style="endArrow=block;startArrow=block;endFill=1;startFill=1;html=1;rounded=0;entryX=0.119;entryY=0.002;entryDx=0;entryDy=0;entryPerimeter=0;exitX=0.119;exitY=0.996;exitDx=0;exitDy=0;exitPerimeter=0;" edge="1" parent="1">
          <mxGeometry width="160" relative="1" as="geometry">
            <mxPoint x="279" y="185" as="sourcePoint" />
            <mxPoint x="279" y="220" as="targetPoint" />
          </mxGeometry>
        </mxCell>
        <mxCell id="PwJvdcio4J_TDnvO0Oxu-49" value="" style="endArrow=block;startArrow=block;endFill=1;startFill=1;html=1;rounded=0;entryX=0.119;entryY=0.002;entryDx=0;entryDy=0;entryPerimeter=0;exitX=0.119;exitY=0.996;exitDx=0;exitDy=0;exitPerimeter=0;" edge="1" parent="1">
          <mxGeometry width="160" relative="1" as="geometry">
            <mxPoint x="338" y="185" as="sourcePoint" />
            <mxPoint x="338" y="220" as="targetPoint" />
          </mxGeometry>
        </mxCell>
        <mxCell id="PwJvdcio4J_TDnvO0Oxu-50" value="" style="endArrow=block;startArrow=block;endFill=1;startFill=1;html=1;rounded=0;entryX=0.119;entryY=0.002;entryDx=0;entryDy=0;entryPerimeter=0;exitX=0.119;exitY=0.996;exitDx=0;exitDy=0;exitPerimeter=0;" edge="1" parent="1">
          <mxGeometry width="160" relative="1" as="geometry">
            <mxPoint x="398" y="185" as="sourcePoint" />
            <mxPoint x="398" y="220" as="targetPoint" />
          </mxGeometry>
        </mxCell>
        <mxCell id="PwJvdcio4J_TDnvO0Oxu-51" value="" style="endArrow=block;startArrow=block;endFill=1;startFill=1;html=1;rounded=0;entryX=0.119;entryY=0.002;entryDx=0;entryDy=0;entryPerimeter=0;exitX=0.119;exitY=0.996;exitDx=0;exitDy=0;exitPerimeter=0;" edge="1" parent="1">
          <mxGeometry width="160" relative="1" as="geometry">
            <mxPoint x="569" y="185" as="sourcePoint" />
            <mxPoint x="569" y="220" as="targetPoint" />
          </mxGeometry>
        </mxCell>
        <mxCell id="PwJvdcio4J_TDnvO0Oxu-52" value="" style="endArrow=block;startArrow=block;endFill=1;startFill=1;html=1;rounded=0;entryX=0.119;entryY=0.002;entryDx=0;entryDy=0;entryPerimeter=0;exitX=0.119;exitY=0.996;exitDx=0;exitDy=0;exitPerimeter=0;" edge="1" parent="1">
          <mxGeometry width="160" relative="1" as="geometry">
            <mxPoint x="630" y="185" as="sourcePoint" />
            <mxPoint x="630" y="220" as="targetPoint" />
          </mxGeometry>
        </mxCell>
        <mxCell id="PwJvdcio4J_TDnvO0Oxu-53" value="&lt;font style=&quot;font-size: 25px;&quot;&gt;Character mapping&lt;/font&gt;" style="text;html=1;align=center;verticalAlign=middle;resizable=0;points=[];autosize=1;strokeColor=none;fillColor=none;" vertex="1" parent="1">
          <mxGeometry x="310" y="77" width="231" height="42" as="geometry" />
        </mxCell>
        <mxCell id="wBlcdllmtn4ks0drJS8L-1" value="" style="sketch=0;outlineConnect=0;fontColor=#232F3E;gradientColor=none;fillColor=#232F3D;strokeColor=none;dashed=0;verticalLabelPosition=bottom;verticalAlign=top;align=center;html=1;fontSize=12;fontStyle=0;aspect=fixed;pointerEvents=1;shape=mxgraph.aws4.document;" vertex="1" parent="1">
          <mxGeometry x="168.5" y="744.5" width="76" height="104" as="geometry" />
        </mxCell>
        <mxCell id="wBlcdllmtn4ks0drJS8L-2" value="&lt;font style=&quot;font-size: 14px;&quot;&gt;Plain text&lt;/font&gt;" style="whiteSpace=wrap;html=1;fillColor=none;strokeColor=none;" vertex="1" parent="1">
          <mxGeometry x="171.2" y="861" width="70.6" height="29" as="geometry" />
        </mxCell>
        <mxCell id="wBlcdllmtn4ks0drJS8L-3" value="&lt;font style=&quot;font-size: 25px;&quot;&gt;Hybrid encryption&lt;/font&gt;" style="whiteSpace=wrap;html=1;fillColor=default;strokeColor=none;" vertex="1" parent="1">
          <mxGeometry x="243.5" y="368" width="362" height="118" as="geometry" />
        </mxCell>
        <mxCell id="wBlcdllmtn4ks0drJS8L-4" value="" style="points=[[0,0.5,0],[0.24,0,0],[0.5,0.28,0],[0.995,0.475,0],[0.5,0.72,0],[0.24,1,0]];verticalLabelPosition=bottom;sketch=0;html=1;verticalAlign=top;aspect=fixed;align=center;pointerEvents=1;shape=mxgraph.cisco19.key;fillColor=#005073;strokeColor=none;" vertex="1" parent="1">
          <mxGeometry x="259.5" y="771.3" width="112" height="50.4" as="geometry" />
        </mxCell>
        <mxCell id="wBlcdllmtn4ks0drJS8L-5" value="Cipher text&lt;div&gt;&lt;br&gt;&lt;/div&gt;" style="sketch=0;outlineConnect=0;fontColor=#232F3E;gradientColor=none;strokeColor=none;fillColor=none;dashed=0;verticalLabelPosition=bottom;verticalAlign=top;align=center;html=1;fontSize=14;fontStyle=0;aspect=fixed;shape=mxgraph.aws4.resourceIcon;resIcon=mxgraph.aws4.encrypted_data;" vertex="1" parent="1">
          <mxGeometry x="361.5" y="732" width="129" height="129" as="geometry" />
        </mxCell>
        <mxCell id="wBlcdllmtn4ks0drJS8L-6" value="" style="sketch=0;outlineConnect=0;fontColor=#232F3E;gradientColor=none;fillColor=#232F3D;strokeColor=none;dashed=0;verticalLabelPosition=bottom;verticalAlign=top;align=center;html=1;fontSize=12;fontStyle=0;aspect=fixed;pointerEvents=1;shape=mxgraph.aws4.document;" vertex="1" parent="1">
          <mxGeometry x="606.5" y="744.5" width="76" height="104" as="geometry" />
        </mxCell>
        <mxCell id="wBlcdllmtn4ks0drJS8L-7" value="" style="points=[[0,0.5,0],[0.24,0,0],[0.5,0.28,0],[0.995,0.475,0],[0.5,0.72,0],[0.24,1,0]];verticalLabelPosition=bottom;sketch=0;html=1;verticalAlign=top;aspect=fixed;align=center;pointerEvents=1;shape=mxgraph.cisco19.key;fillColor=#005073;strokeColor=none;" vertex="1" parent="1">
          <mxGeometry x="483.5" y="769.5" width="112" height="50.4" as="geometry" />
        </mxCell>
        <mxCell id="wBlcdllmtn4ks0drJS8L-8" value="&lt;font style=&quot;font-size: 14px;&quot;&gt;Plain text&lt;/font&gt;" style="whiteSpace=wrap;html=1;fillColor=none;strokeColor=none;" vertex="1" parent="1">
          <mxGeometry x="609.2" y="861" width="70.6" height="29" as="geometry" />
        </mxCell>
        <mxCell id="wBlcdllmtn4ks0drJS8L-9" value="&lt;font style=&quot;font-size: 16px;&quot;&gt;Encryption&lt;/font&gt;" style="text;html=1;align=center;verticalAlign=middle;resizable=0;points=[];autosize=1;strokeColor=none;fillColor=none;fontStyle=1" vertex="1" parent="1">
          <mxGeometry x="268.5" y="741.3" width="94" height="31" as="geometry" />
        </mxCell>
        <mxCell id="wBlcdllmtn4ks0drJS8L-10" value="&lt;font style=&quot;font-size: 16px;&quot;&gt;Decryption&lt;/font&gt;" style="text;html=1;align=center;verticalAlign=middle;resizable=0;points=[];autosize=1;strokeColor=none;fillColor=none;fontStyle=1" vertex="1" parent="1">
          <mxGeometry x="493.5" y="739.5" width="94" height="31" as="geometry" />
        </mxCell>
        <mxCell id="wBlcdllmtn4ks0drJS8L-11" style="edgeStyle=orthogonalEdgeStyle;rounded=0;orthogonalLoop=1;jettySize=auto;html=1;exitX=0.5;exitY=0.72;exitDx=0;exitDy=0;exitPerimeter=0;entryX=0.5;entryY=0.048;entryDx=0;entryDy=0;entryPerimeter=0;" edge="1" parent="1" source="wBlcdllmtn4ks0drJS8L-12">
          <mxGeometry relative="1" as="geometry">
            <mxPoint x="277" y="741.298" as="targetPoint" />
          </mxGeometry>
        </mxCell>
        <mxCell id="wBlcdllmtn4ks0drJS8L-12" value="" style="points=[[0,0.5,0],[0.24,0,0],[0.5,0.28,0],[0.995,0.475,0],[0.5,0.72,0],[0.24,1,0]];verticalLabelPosition=bottom;sketch=0;html=1;verticalAlign=top;aspect=fixed;align=center;pointerEvents=1;shape=mxgraph.cisco19.key;fillColor=#004C99;strokeColor=none;rotation=0;" vertex="1" parent="1">
          <mxGeometry x="243.11" y="618.51" width="67.78" height="30.5" as="geometry" />
        </mxCell>
        <mxCell id="wBlcdllmtn4ks0drJS8L-13" value="&lt;font style=&quot;font-size: 14px;&quot;&gt;Secret key&lt;/font&gt;" style="text;html=1;align=center;verticalAlign=middle;resizable=0;points=[];autosize=1;strokeColor=none;fillColor=none;fontSize=14;" vertex="1" parent="1">
          <mxGeometry x="540" y="589.51" width="84" height="29" as="geometry" />
        </mxCell>
        <mxCell id="wBlcdllmtn4ks0drJS8L-15" style="edgeStyle=orthogonalEdgeStyle;rounded=0;orthogonalLoop=1;jettySize=auto;html=1;exitX=0.5;exitY=0.72;exitDx=0;exitDy=0;exitPerimeter=0;entryX=0.505;entryY=0.1;entryDx=0;entryDy=0;entryPerimeter=0;" edge="1" parent="1">
          <mxGeometry relative="1" as="geometry">
            <mxPoint x="582.0000000000002" y="643.86" as="sourcePoint" />
            <mxPoint x="582.47" y="744.4999999999999" as="targetPoint" />
          </mxGeometry>
        </mxCell>
        <mxCell id="wBlcdllmtn4ks0drJS8L-16" value="&lt;font style=&quot;font-size: 14px;&quot;&gt;Public key&lt;/font&gt;" style="text;html=1;align=center;verticalAlign=middle;resizable=0;points=[];autosize=1;strokeColor=none;fillColor=none;fontSize=14;" vertex="1" parent="1">
          <mxGeometry x="236" y="589.51" width="82" height="29" as="geometry" />
        </mxCell>
        <mxCell id="wBlcdllmtn4ks0drJS8L-17" value="" style="points=[[0,0.5,0],[0.24,0,0],[0.5,0.28,0],[0.995,0.475,0],[0.5,0.72,0],[0.24,1,0]];verticalLabelPosition=bottom;sketch=0;html=1;verticalAlign=top;aspect=fixed;align=center;pointerEvents=1;shape=mxgraph.cisco19.key;fillColor=#004C99;strokeColor=none;rotation=0;" vertex="1" parent="1">
          <mxGeometry x="548.11" y="618.51" width="67.78" height="30.5" as="geometry" />
        </mxCell>
        <mxCell id="wBlcdllmtn4ks0drJS8L-19" value="" style="edgeStyle=orthogonalEdgeStyle;rounded=0;orthogonalLoop=1;jettySize=auto;html=1;entryX=0.995;entryY=0.475;entryDx=0;entryDy=0;entryPerimeter=0;" edge="1" parent="1" source="wBlcdllmtn4ks0drJS8L-18" target="wBlcdllmtn4ks0drJS8L-12">
          <mxGeometry relative="1" as="geometry" />
        </mxCell>
        <mxCell id="wBlcdllmtn4ks0drJS8L-20" value="" style="edgeStyle=orthogonalEdgeStyle;rounded=0;orthogonalLoop=1;jettySize=auto;html=1;" edge="1" parent="1" source="wBlcdllmtn4ks0drJS8L-18" target="wBlcdllmtn4ks0drJS8L-17">
          <mxGeometry relative="1" as="geometry" />
        </mxCell>
        <mxCell id="wBlcdllmtn4ks0drJS8L-18" value="" style="sketch=0;outlineConnect=0;fontColor=#232F3E;gradientColor=none;fillColor=#DD344C;strokeColor=none;dashed=0;verticalLabelPosition=bottom;verticalAlign=top;align=center;html=1;fontSize=12;fontStyle=0;aspect=fixed;pointerEvents=1;shape=mxgraph.aws4.data_encryption_key;" vertex="1" parent="1">
          <mxGeometry x="394.5" y="594.76" width="62" height="78" as="geometry" />
        </mxCell>
        <mxCell id="wBlcdllmtn4ks0drJS8L-21" value="&lt;font style=&quot;font-size: 14px;&quot;&gt;Encrypted key&lt;/font&gt;" style="text;html=1;align=center;verticalAlign=middle;resizable=0;points=[];autosize=1;strokeColor=none;fillColor=none;" vertex="1" parent="1">
          <mxGeometry x="372.5" y="563" width="107" height="29" as="geometry" />
        </mxCell>
      </root>
    </mxGraphModel>
  </diagram>
</mxfile>
